<svg xmlns="http://www.w3.org/2000/svg" version="1.1" xmlns:xlink="http://www.w3.org/1999/xlink" xmlns:svgjs="http://svgjs.dev/svgjs" width="2560" height="1440" preserveAspectRatio="none" viewBox="0 0 2560 1440"><g mask="url(&quot;#SvgjsMask5223&quot;)" fill="none"><rect width="2560" height="1440" x="0" y="0" fill="url(&quot;#SvgjsRadialGradient5224&quot;)"></rect><path d="M2560 0L1447.13 0L2560 549.23z" fill="rgba(255, 255, 255, .1)"></path><path d="M1447.13 0L2560 549.23L2560 903.75L644.8300000000002 0z" fill="rgba(255, 255, 255, .075)"></path><path d="M644.8300000000002 0L2560 903.75L2560 927.16L293.94000000000017 0z" fill="rgba(255, 255, 255, .05)"></path><path d="M293.94000000000005 0L2560 927.16L2560 971.54L247.15000000000006 0z" fill="rgba(255, 255, 255, .025)"></path><path d="M0 1440L672.85 1440L0 1295.21z" fill="rgba(0, 0, 0, .1)"></path><path d="M0 1295.21L672.85 1440L731.51 1440L0 975.61z" fill="rgba(0, 0, 0, .075)"></path><path d="M0 975.61L731.51 1440L1165.82 1440L0 520.52z" fill="rgba(0, 0, 0, .05)"></path><path d="M0 520.52L1165.82 1440L1476.84 1440L0 469.99z" fill="rgba(0, 0, 0, .025)"></path></g><defs><mask id="SvgjsMask5223"><rect width="2560" height="1440" fill="#ffffff"></rect></mask><radialGradient cx="50%" cy="50%" r="1468.6" gradientUnits="userSpaceOnUse" id="SvgjsRadialGradient5224"><stop stop-color="rgba(14, 42, 71, 1)" offset="0"></stop><stop stop-color="rgba(0, 0, 0, 0)" offset="0.93"></stop></radialGradient></defs></svg>