<svg xmlns="http://www.w3.org/2000/svg" version="1.1" xmlns:xlink="http://www.w3.org/1999/xlink" xmlns:svgjs="http://svgjs.dev/svgjs" width="2560" height="1440" preserveAspectRatio="none" viewBox="0 0 2560 1440"><g mask="url(&quot;#SvgjsMask1078&quot;)" fill="none"><path d="M2487 1152L1539 2100" stroke-width="8" stroke="url(&quot;#SvgjsLinearGradient1079&quot;)" stroke-linecap="round" class="BottomLeft"></path><path d="M1176 407L339 1244" stroke-width="10" stroke="url(&quot;#SvgjsLinearGradient1079&quot;)" stroke-linecap="round" class="BottomLeft"></path><path d="M2113 1092L2821 384" stroke-width="10" stroke="url(&quot;#SvgjsLinearGradient1079&quot;)" stroke-linecap="round" class="BottomLeft"></path><path d="M1550 934L585 1899" stroke-width="6" stroke="url(&quot;#SvgjsLinearGradient1079&quot;)" stroke-linecap="round" class="BottomLeft"></path><path d="M1179 916L1696 399" stroke-width="10" stroke="url(&quot;#SvgjsLinearGradient1079&quot;)" stroke-linecap="round" class="BottomLeft"></path><path d="M1892 1283L834 2341" stroke-width="8" stroke="url(&quot;#SvgjsLinearGradient1080&quot;)" stroke-linecap="round" class="TopRight"></path><path d="M981 53L44 990" stroke-width="6" stroke="url(&quot;#SvgjsLinearGradient1079&quot;)" stroke-linecap="round" class="BottomLeft"></path><path d="M687 776L1445 18" stroke-width="8" stroke="url(&quot;#SvgjsLinearGradient1079&quot;)" stroke-linecap="round" class="BottomLeft"></path><path d="M721 1374L1433 662" stroke-width="10" stroke="url(&quot;#SvgjsLinearGradient1079&quot;)" stroke-linecap="round" class="BottomLeft"></path><path d="M462 398L-516 1376" stroke-width="8" stroke="url(&quot;#SvgjsLinearGradient1080&quot;)" stroke-linecap="round" class="TopRight"></path><path d="M1520 524L1149 895" stroke-width="8" stroke="url(&quot;#SvgjsLinearGradient1079&quot;)" stroke-linecap="round" class="BottomLeft"></path><path d="M635 927L-307 1869" stroke-width="6" stroke="url(&quot;#SvgjsLinearGradient1079&quot;)" stroke-linecap="round" class="BottomLeft"></path><path d="M1459 1225L2392 292" stroke-width="8" stroke="url(&quot;#SvgjsLinearGradient1079&quot;)" stroke-linecap="round" class="BottomLeft"></path><path d="M931 2L75 858" stroke-width="6" stroke="url(&quot;#SvgjsLinearGradient1080&quot;)" stroke-linecap="round" class="TopRight"></path><path d="M2531 429L3603 -643" stroke-width="10" stroke="url(&quot;#SvgjsLinearGradient1080&quot;)" stroke-linecap="round" class="TopRight"></path><path d="M513 666L-484 1663" stroke-width="6" stroke="url(&quot;#SvgjsLinearGradient1079&quot;)" stroke-linecap="round" class="BottomLeft"></path><path d="M2535 231L3320 -554" stroke-width="8" stroke="url(&quot;#SvgjsLinearGradient1080&quot;)" stroke-linecap="round" class="TopRight"></path><path d="M249 250L-353 852" stroke-width="10" stroke="url(&quot;#SvgjsLinearGradient1079&quot;)" stroke-linecap="round" class="BottomLeft"></path><path d="M2358 1277L1562 2073" stroke-width="6" stroke="url(&quot;#SvgjsLinearGradient1079&quot;)" stroke-linecap="round" class="BottomLeft"></path><path d="M1092 1354L236 2210" stroke-width="6" stroke="url(&quot;#SvgjsLinearGradient1080&quot;)" stroke-linecap="round" class="TopRight"></path><path d="M1629 665L1995 299" stroke-width="8" stroke="url(&quot;#SvgjsLinearGradient1080&quot;)" stroke-linecap="round" class="TopRight"></path><path d="M615 933L-52 1600" stroke-width="8" stroke="url(&quot;#SvgjsLinearGradient1079&quot;)" stroke-linecap="round" class="BottomLeft"></path><path d="M870 1352L1610 612" stroke-width="10" stroke="url(&quot;#SvgjsLinearGradient1079&quot;)" stroke-linecap="round" class="BottomLeft"></path><path d="M1417 132L673 876" stroke-width="8" stroke="url(&quot;#SvgjsLinearGradient1080&quot;)" stroke-linecap="round" class="TopRight"></path><path d="M2042 1117L2721 438" stroke-width="10" stroke="url(&quot;#SvgjsLinearGradient1080&quot;)" stroke-linecap="round" class="TopRight"></path><path d="M93 1376L-835 2304" stroke-width="10" stroke="url(&quot;#SvgjsLinearGradient1080&quot;)" stroke-linecap="round" class="TopRight"></path><path d="M2183 271L3075 -621" stroke-width="8" stroke="url(&quot;#SvgjsLinearGradient1079&quot;)" stroke-linecap="round" class="BottomLeft"></path><path d="M744 115L1219 -360" stroke-width="6" stroke="url(&quot;#SvgjsLinearGradient1079&quot;)" stroke-linecap="round" class="BottomLeft"></path><path d="M2523 1431L1616 2338" stroke-width="8" stroke="url(&quot;#SvgjsLinearGradient1079&quot;)" stroke-linecap="round" class="BottomLeft"></path><path d="M2231 474L1562 1143" stroke-width="10" stroke="url(&quot;#SvgjsLinearGradient1079&quot;)" stroke-linecap="round" class="BottomLeft"></path><path d="M1642 662L707 1597" stroke-width="10" stroke="url(&quot;#SvgjsLinearGradient1080&quot;)" stroke-linecap="round" class="TopRight"></path><path d="M1991 425L933 1483" stroke-width="6" stroke="url(&quot;#SvgjsLinearGradient1079&quot;)" stroke-linecap="round" class="BottomLeft"></path><path d="M225 639L-204 1068" stroke-width="8" stroke="url(&quot;#SvgjsLinearGradient1080&quot;)" stroke-linecap="round" class="TopRight"></path><path d="M1543 447L1947 43" stroke-width="8" stroke="url(&quot;#SvgjsLinearGradient1079&quot;)" stroke-linecap="round" class="BottomLeft"></path><path d="M498 1405L-555 2458" stroke-width="6" stroke="url(&quot;#SvgjsLinearGradient1079&quot;)" stroke-linecap="round" class="BottomLeft"></path><path d="M1980 232L2925 -713" stroke-width="8" stroke="url(&quot;#SvgjsLinearGradient1080&quot;)" stroke-linecap="round" class="TopRight"></path><path d="M2529 736L1813 1452" stroke-width="8" stroke="url(&quot;#SvgjsLinearGradient1080&quot;)" stroke-linecap="round" class="TopRight"></path><path d="M870 923L-53 1846" stroke-width="10" stroke="url(&quot;#SvgjsLinearGradient1079&quot;)" stroke-linecap="round" class="BottomLeft"></path><path d="M357 203L1027 -467" stroke-width="8" stroke="url(&quot;#SvgjsLinearGradient1080&quot;)" stroke-linecap="round" class="TopRight"></path><path d="M2111 463L1685 889" stroke-width="10" stroke="url(&quot;#SvgjsLinearGradient1080&quot;)" stroke-linecap="round" class="TopRight"></path><path d="M1923 145L2836 -768" stroke-width="8" stroke="url(&quot;#SvgjsLinearGradient1079&quot;)" stroke-linecap="round" class="BottomLeft"></path><path d="M106 742L-527 1375" stroke-width="8" stroke="url(&quot;#SvgjsLinearGradient1079&quot;)" stroke-linecap="round" class="BottomLeft"></path><path d="M2254 467L1267 1454" stroke-width="6" stroke="url(&quot;#SvgjsLinearGradient1079&quot;)" stroke-linecap="round" class="BottomLeft"></path><path d="M1087 164L600 651" stroke-width="8" stroke="url(&quot;#SvgjsLinearGradient1079&quot;)" stroke-linecap="round" class="BottomLeft"></path><path d="M964 757L304 1417" stroke-width="8" stroke="url(&quot;#SvgjsLinearGradient1080&quot;)" stroke-linecap="round" class="TopRight"></path><path d="M1861 4L2762 -897" stroke-width="6" stroke="url(&quot;#SvgjsLinearGradient1080&quot;)" stroke-linecap="round" class="TopRight"></path><path d="M723 170L1229 -336" stroke-width="10" stroke="url(&quot;#SvgjsLinearGradient1079&quot;)" stroke-linecap="round" class="BottomLeft"></path><path d="M2553 837L1741 1649" stroke-width="10" stroke="url(&quot;#SvgjsLinearGradient1079&quot;)" stroke-linecap="round" class="BottomLeft"></path><path d="M1233 186L2200 -781" stroke-width="8" stroke="url(&quot;#SvgjsLinearGradient1079&quot;)" stroke-linecap="round" class="BottomLeft"></path><path d="M511 1110L-206 1827" stroke-width="6" stroke="url(&quot;#SvgjsLinearGradient1079&quot;)" stroke-linecap="round" class="BottomLeft"></path><path d="M1096 1359L729 1726" stroke-width="8" stroke="url(&quot;#SvgjsLinearGradient1079&quot;)" stroke-linecap="round" class="BottomLeft"></path><path d="M2108 994L2967 135" stroke-width="8" stroke="url(&quot;#SvgjsLinearGradient1079&quot;)" stroke-linecap="round" class="BottomLeft"></path><path d="M1509 875L519 1865" stroke-width="8" stroke="url(&quot;#SvgjsLinearGradient1080&quot;)" stroke-linecap="round" class="TopRight"></path><path d="M309 939L-582 1830" stroke-width="8" stroke="url(&quot;#SvgjsLinearGradient1080&quot;)" stroke-linecap="round" class="TopRight"></path><path d="M1033 1211L408 1836" stroke-width="6" stroke="url(&quot;#SvgjsLinearGradient1080&quot;)" stroke-linecap="round" class="TopRight"></path><path d="M1875 535L1212 1198" stroke-width="8" stroke="url(&quot;#SvgjsLinearGradient1080&quot;)" stroke-linecap="round" class="TopRight"></path><path d="M1919 60L1446 533" stroke-width="10" stroke="url(&quot;#SvgjsLinearGradient1080&quot;)" stroke-linecap="round" class="TopRight"></path><path d="M1035 1264L1543 756" stroke-width="8" stroke="url(&quot;#SvgjsLinearGradient1080&quot;)" stroke-linecap="round" class="TopRight"></path><path d="M109 1119L-756 1984" stroke-width="10" stroke="url(&quot;#SvgjsLinearGradient1079&quot;)" stroke-linecap="round" class="BottomLeft"></path><path d="M1709 430L2780 -641" stroke-width="6" stroke="url(&quot;#SvgjsLinearGradient1080&quot;)" stroke-linecap="round" class="TopRight"></path><path d="M2138 419L3066 -509" stroke-width="8" stroke="url(&quot;#SvgjsLinearGradient1080&quot;)" stroke-linecap="round" class="TopRight"></path><path d="M2523 135L2083 575" stroke-width="8" stroke="url(&quot;#SvgjsLinearGradient1079&quot;)" stroke-linecap="round" class="BottomLeft"></path><path d="M789 804L-163 1756" stroke-width="8" stroke="url(&quot;#SvgjsLinearGradient1079&quot;)" stroke-linecap="round" class="BottomLeft"></path><path d="M1163 639L130 1672" stroke-width="8" stroke="url(&quot;#SvgjsLinearGradient1079&quot;)" stroke-linecap="round" class="BottomLeft"></path><path d="M1948 911L2979 -120" stroke-width="6" stroke="url(&quot;#SvgjsLinearGradient1079&quot;)" stroke-linecap="round" class="BottomLeft"></path><path d="M1927 822L1217 1532" stroke-width="8" stroke="url(&quot;#SvgjsLinearGradient1080&quot;)" stroke-linecap="round" class="TopRight"></path><path d="M602 1059L1341 320" stroke-width="10" stroke="url(&quot;#SvgjsLinearGradient1079&quot;)" stroke-linecap="round" class="BottomLeft"></path><path d="M345 645L978 12" stroke-width="10" stroke="url(&quot;#SvgjsLinearGradient1079&quot;)" stroke-linecap="round" class="BottomLeft"></path><path d="M2356 1055L1469 1942" stroke-width="10" stroke="url(&quot;#SvgjsLinearGradient1079&quot;)" stroke-linecap="round" class="BottomLeft"></path><path d="M2209 765L1491 1483" stroke-width="10" stroke="url(&quot;#SvgjsLinearGradient1079&quot;)" stroke-linecap="round" class="BottomLeft"></path><path d="M2210 1052L1377 1885" stroke-width="10" stroke="url(&quot;#SvgjsLinearGradient1079&quot;)" stroke-linecap="round" class="BottomLeft"></path><path d="M313 1132L1102 343" stroke-width="8" stroke="url(&quot;#SvgjsLinearGradient1079&quot;)" stroke-linecap="round" class="BottomLeft"></path><path d="M2184 596L1701 1079" stroke-width="10" stroke="url(&quot;#SvgjsLinearGradient1079&quot;)" stroke-linecap="round" class="BottomLeft"></path><path d="M42 656L599 99" stroke-width="6" stroke="url(&quot;#SvgjsLinearGradient1079&quot;)" stroke-linecap="round" class="BottomLeft"></path></g><defs><mask id="SvgjsMask1078"><rect width="2560" height="1440" fill="#ffffff"></rect></mask><linearGradient x1="100%" y1="0%" x2="0%" y2="100%" id="SvgjsLinearGradient1079"><stop stop-color="rgba(28, 142, 126, 0)" offset="0"></stop><stop stop-color="rgba(28, 142, 126, 0.38)" offset="1"></stop></linearGradient><linearGradient x1="0%" y1="100%" x2="100%" y2="0%" id="SvgjsLinearGradient1080"><stop stop-color="rgba(28, 142, 126, 0)" offset="0"></stop><stop stop-color="rgba(28, 142, 126, 0.38)" offset="1"></stop></linearGradient></defs></svg>