<svg xmlns="http://www.w3.org/2000/svg" version="1.1" xmlns:xlink="http://www.w3.org/1999/xlink" xmlns:svgjs="http://svgjs.dev/svgjs" width="2560" height="1440" preserveAspectRatio="none" viewBox="0 0 2560 1440"><g mask="url(&quot;#SvgjsMask1039&quot;)" fill="none"><rect width="2560" height="1440" x="0" y="0" fill="rgba(62, 62, 69, 0.13)"></rect><path d="M0 0L850.92 0L0 467.25z" fill="rgba(255, 255, 255, .1)"></path><path d="M0 467.25L850.92 0L1090.07 0L0 938.87z" fill="rgba(255, 255, 255, .075)"></path><path d="M0 938.87L1090.07 0L1798.1299999999999 0L0 1024.17z" fill="rgba(255, 255, 255, .05)"></path><path d="M0 1024.17L1798.1299999999999 0L2072.3599999999997 0L0 1061.93z" fill="rgba(255, 255, 255, .025)"></path><path d="M2560 1440L2275.83 1440L2560 1369.52z" fill="rgba(0, 0, 0, .1)"></path><path d="M2560 1369.52L2275.83 1440L1365.8799999999999 1440L2560 740.93z" fill="rgba(0, 0, 0, .075)"></path><path d="M2560 740.93L1365.8799999999999 1440L981.0199999999999 1440L2560 468.73999999999995z" fill="rgba(0, 0, 0, .05)"></path><path d="M2560 468.74L981.02 1440L349.53 1440L2560 422.94z" fill="rgba(0, 0, 0, .025)"></path></g><defs><mask id="SvgjsMask1039"><rect width="2560" height="1440" fill="#ffffff"></rect></mask></defs></svg>