<svg xmlns="http://www.w3.org/2000/svg" version="1.1" xmlns:xlink="http://www.w3.org/1999/xlink" xmlns:svgjs="http://svgjs.dev/svgjs" width="2560" height="1440" preserveAspectRatio="none" viewBox="0 0 2560 1440"><g mask="url(&quot;#SvgjsMask2667&quot;)" fill="none"><rect width="2560" height="1440" x="0" y="0" fill="url(&quot;#SvgjsRadialGradient2668&quot;)"></rect><path d="M1326.8989092706186 270.1487999636409L1574.9623764363064 261.486232807424 1318.2363421144016 22.085332797953072z" fill="rgba(28, 87, 142, 0.17)" class="triangle-float2"></path><path d="M1699.15 132.91 a274.35 274.35 0 1 0 548.7 0 a274.35 274.35 0 1 0 -548.7 0z" fill="rgba(28, 87, 142, 0.17)" class="triangle-float3"></path><path d="M2221.944,1454.631C2369.139,1449.024,2462.04,1311.058,2529.63,1180.178C2590.375,1062.553,2614.982,928.287,2554.605,810.473C2488.644,681.762,2366.509,584.103,2221.944,579.785C2070.386,575.258,1927.208,657.299,1852.981,789.514C1780.199,919.155,1798.665,1075.266,1870.786,1205.276C1945.427,1339.829,2068.187,1460.488,2221.944,1454.631" fill="rgba(28, 87, 142, 0.17)" class="triangle-float3"></path><path d="M1634.118,1008.666C1715.554,1003.534,1776.25,941.446,1815.555,869.938C1853.145,801.551,1865.809,721.419,1830.165,651.998C1791.282,576.27,1719.19,519.621,1634.118,516.571C1543.94,513.338,1458.305,559.494,1412.108,637.008C1364.803,716.381,1360.833,816.284,1408.218,895.609C1454.5,973.088,1544.047,1014.342,1634.118,1008.666" fill="rgba(28, 87, 142, 0.17)" class="triangle-float1"></path><path d="M719.093,151.366C757.936,149.123,783.744,114.538,801.111,79.721C816.339,49.192,819.962,13.521,802.455,-15.761C785.366,-44.343,752.323,-55.284,719.093,-57.459C680.331,-59.996,636.226,-60.211,614.412,-28.069C590.658,6.93,597.532,53.709,618.847,90.245C639.984,126.476,677.217,153.784,719.093,151.366" fill="rgba(28, 87, 142, 0.17)" class="triangle-float2"></path><path d="M587.2188512141254 1153.6604351084934L363.0320078040124 1201.3128197154026 410.68439241092165 1425.4996631255158 634.8712358210347 1377.8472785186063z" fill="rgba(28, 87, 142, 0.17)" class="triangle-float3"></path><path d="M1546.178,906.14C1643.011,906.708,1744.331,883.623,1796.411,801.985C1852.026,714.807,1851.223,600.76,1797.267,512.546C1745.415,427.772,1645.549,392.064,1546.178,392.87C1448.405,393.663,1352.574,432.854,1302.045,516.562C1249.884,602.974,1247.377,713.552,1300.975,799.081C1351.734,880.08,1450.591,905.58,1546.178,906.14" fill="rgba(28, 87, 142, 0.17)" class="triangle-float1"></path><path d="M2062.7835907429117 1169.5135147551844L1784.7678397974564 1068.3240567538728 1683.578381796145 1346.339807699328 1961.5941327416 1447.5292657006396z" fill="rgba(28, 87, 142, 0.17)" class="triangle-float2"></path><path d="M155.176,1260.568C235.012,1257.704,307.989,1219.715,350.807,1152.272C397.221,1079.166,415.551,988.801,376.918,911.301C334.116,825.437,251.079,757.114,155.176,759.825C62.65,762.441,-1.646,841.936,-45.866,923.253C-87.656,1000.1,-111.161,1092.096,-66.376,1167.237C-22.403,1241.016,69.342,1263.647,155.176,1260.568" fill="rgba(28, 87, 142, 0.17)" class="triangle-float2"></path><path d="M-12.186,1422.336C57.629,1421.76,127.564,1396.166,163.189,1336.122C199.472,1274.97,192.877,1198.581,156.997,1137.191C121.464,1076.394,58.099,1031.716,-12.186,1036.057C-76.993,1040.06,-115.443,1100.284,-148.668,1156.071C-183.072,1213.837,-223.312,1279.223,-192.643,1339.056C-160.254,1402.244,-83.189,1422.921,-12.186,1422.336" fill="rgba(28, 87, 142, 0.17)" class="triangle-float2"></path><path d="M777.8718211066462 592.5969428990744L428.8354956614504 895.4260739635939 808.4184603903173 1033.5829745594192z" fill="rgba(28, 87, 142, 0.17)" class="triangle-float1"></path><path d="M773.551556569887 786.6122233252853L941.1801881724069 1146.092983872436 1300.6609487195576 978.4643522699162 1133.0323171170378 618.9835917227654z" fill="rgba(28, 87, 142, 0.17)" class="triangle-float3"></path><path d="M2358.5589330576945 183.80826076968302L2554.789085652579 138.50496039580872 2388.719058794325-133.1886183095812z" fill="rgba(28, 87, 142, 0.17)" class="triangle-float2"></path><path d="M302.09 1147.28 a446.84 446.84 0 1 0 893.68 0 a446.84 446.84 0 1 0 -893.68 0z" fill="rgba(28, 87, 142, 0.17)" class="triangle-float1"></path><path d="M1813.8946138626723 502.2146559458803L1670.2313626873395 429.0145733149378 1632.262864328592 681.1094913934082z" fill="rgba(28, 87, 142, 0.17)" class="triangle-float2"></path><path d="M1161.113,1240.732C1290.156,1236.056,1394.337,1148.779,1460.101,1037.653C1527.36,924.002,1569.657,781.515,1498.846,670.042C1431.203,563.556,1286.923,557.67,1161.113,566.974C1054.314,574.872,960.691,626.037,900.076,714.322C828.264,818.915,765.713,947.109,822.078,1060.774C883,1183.629,1024.072,1245.698,1161.113,1240.732" fill="rgba(28, 87, 142, 0.17)" class="triangle-float1"></path><path d="M1861.974,588.608C1973.9,586.92,2069.686,521.758,2131.106,428.174C2200.502,322.438,2254.12,192.288,2195.708,80.11C2133.999,-38.399,1995.452,-94.685,1861.974,-88.678C1738.253,-83.11,1635.344,-1.002,1576.504,107.974C1520.738,211.257,1518.467,335.591,1578.407,436.509C1637.114,535.351,1747.025,590.341,1861.974,588.608" fill="rgba(28, 87, 142, 0.17)" class="triangle-float2"></path></g><defs><mask id="SvgjsMask2667"><rect width="2560" height="1440" fill="#ffffff"></rect></mask><radialGradient cx="100%" cy="100%" r="2937.21" gradientUnits="userSpaceOnUse" id="SvgjsRadialGradient2668"><stop stop-color="#0e2a47" offset="0"></stop><stop stop-color="rgba(0, 88, 158, 0)" offset="1"></stop></radialGradient><style>
                @keyframes float1 {
                    0%{transform: translate(0, 0)}
                    50%{transform: translate(-10px, 0)}
                    100%{transform: translate(0, 0)}
                }

                .triangle-float1 {
                    animation: float1 5s infinite;
                }

                @keyframes float2 {
                    0%{transform: translate(0, 0)}
                    50%{transform: translate(-5px, -5px)}
                    100%{transform: translate(0, 0)}
                }

                .triangle-float2 {
                    animation: float2 4s infinite;
                }

                @keyframes float3 {
                    0%{transform: translate(0, 0)}
                    50%{transform: translate(0, -10px)}
                    100%{transform: translate(0, 0)}
                }

                .triangle-float3 {
                    animation: float3 6s infinite;
                }
            </style></defs></svg>