<svg xmlns="http://www.w3.org/2000/svg" version="1.1" xmlns:xlink="http://www.w3.org/1999/xlink" xmlns:svgjs="http://svgjs.dev/svgjs" width="2560" height="1440" preserveAspectRatio="none" viewBox="0 0 2560 1440"><g mask="url(&quot;#SvgjsMask1085&quot;)" fill="none"><rect width="2560" height="1440" x="0" y="0" fill="rgba(104, 118, 161, 0.34)"></rect><path d="M1280 2152.12C1648.46 2137.03 1950.13 1910.53 2227.55 1667.55 2532.76 1400.25 2887.47 1124.75 2915.35 720 2944.33 299.01 2671.27-74.56 2367.76-367.76 2070.23-655.17 1693.59-851.54 1280-859.59 858.5-867.78 435.39-720.35 149.18-410.82-127.97-111.13-200 312.26-180.68 720-162.38 1106.17-24.56 1477.85 251.49 1748.51 524.86 2016.56 897.46 2167.8 1280 2152.12" fill="rgba(66, 68, 90, 0.1)"></path><path d="M1280 1778.52C1552.34 1767.37 1775.31 1599.95 1980.37 1420.37 2205.96 1222.79 2468.13 1019.17 2488.73 720 2510.15 408.83 2308.33 132.72 2084-84 1864.09-296.43 1585.69-441.58 1280-447.53 968.46-453.58 655.73-344.61 444.18-115.82 239.33 105.69 186.08 418.62 200.36 720 213.9 1005.43 315.76 1280.15 519.79 1480.21 721.86 1678.32 997.26 1790.12 1280 1778.52" fill="rgba(28, 83, 142, 0.1)"></path><path d="M1280 1404.93C1456.22 1397.71 1600.5 1289.38 1733.18 1173.18 1879.15 1045.34 2048.79 913.58 2062.12 720 2075.98 518.66 1945.39 339.99 1800.23 199.77 1657.94 62.31 1477.8-31.61 1280-35.46 1078.41-39.37 876.06 31.14 739.17 179.17 606.62 322.5 572.17 524.99 581.41 720 590.17 904.69 656.08 1082.45 788.1 1211.9 918.85 1340.09 1097.05 1412.43 1280 1404.93" fill="rgba(39, 116, 198, 0.1)"></path><path d="M1280 1031.33C1360.1 1028.05 1425.68 978.81 1485.99 925.99 1552.34 867.88 1629.45 807.99 1635.51 720 1641.81 628.48 1582.45 547.27 1516.47 483.53 1451.79 421.05 1369.91 378.36 1280 376.61 1188.37 374.83 1096.39 406.88 1034.17 474.17 973.92 539.32 958.26 631.36 962.46 720 966.44 803.95 996.4 884.75 1056.41 943.59 1115.84 1001.86 1196.84 1034.74 1280 1031.33" fill="rgba(72, 143, 219, 0.1)"></path></g><defs><mask id="SvgjsMask1085"><rect width="2560" height="1440" fill="#ffffff"></rect></mask></defs></svg>