<svg xmlns="http://www.w3.org/2000/svg" version="1.1" xmlns:xlink="http://www.w3.org/1999/xlink" xmlns:svgjs="http://svgjs.dev/svgjs" width="2560" height="1440" preserveAspectRatio="none" viewBox="0 0 2560 1440"><g mask="url(&quot;#SvgjsMask5234&quot;)" fill="none"><rect width="2560" height="1440" x="0" y="0" fill="url(&quot;#SvgjsLinearGradient5235&quot;)"></rect><path d="M2100 1108L2099 348" stroke-width="8" stroke="url(&quot;#SvgjsLinearGradient5236&quot;)" stroke-linecap="round" class="Down"></path><path d="M864 1137L863 1831" stroke-width="10" stroke="url(&quot;#SvgjsLinearGradient5236&quot;)" stroke-linecap="round" class="Down"></path><path d="M436 796L435 1786" stroke-width="6" stroke="url(&quot;#SvgjsLinearGradient5237&quot;)" stroke-linecap="round" class="Up"></path><path d="M1644 397L1643 1425" stroke-width="8" stroke="url(&quot;#SvgjsLinearGradient5236&quot;)" stroke-linecap="round" class="Down"></path><path d="M1545 927L1544 1670" stroke-width="8" stroke="url(&quot;#SvgjsLinearGradient5236&quot;)" stroke-linecap="round" class="Down"></path><path d="M198 540L197 -215" stroke-width="6" stroke="url(&quot;#SvgjsLinearGradient5236&quot;)" stroke-linecap="round" class="Down"></path><path d="M1668 1226L1667 408" stroke-width="6" stroke="url(&quot;#SvgjsLinearGradient5236&quot;)" stroke-linecap="round" class="Down"></path><path d="M126 973L125 540" stroke-width="8" stroke="url(&quot;#SvgjsLinearGradient5236&quot;)" stroke-linecap="round" class="Down"></path><path d="M2499 1236L2498 272" stroke-width="8" stroke="url(&quot;#SvgjsLinearGradient5237&quot;)" stroke-linecap="round" class="Up"></path><path d="M1937 1116L1936 392" stroke-width="10" stroke="url(&quot;#SvgjsLinearGradient5236&quot;)" stroke-linecap="round" class="Down"></path><path d="M2082 906L2081 1464" stroke-width="8" stroke="url(&quot;#SvgjsLinearGradient5236&quot;)" stroke-linecap="round" class="Down"></path><path d="M677 344L676 -394" stroke-width="10" stroke="url(&quot;#SvgjsLinearGradient5237&quot;)" stroke-linecap="round" class="Up"></path><path d="M1369 213L1368 708" stroke-width="10" stroke="url(&quot;#SvgjsLinearGradient5236&quot;)" stroke-linecap="round" class="Down"></path><path d="M288 512L287 1592" stroke-width="10" stroke="url(&quot;#SvgjsLinearGradient5237&quot;)" stroke-linecap="round" class="Up"></path><path d="M189 1133L188 357" stroke-width="8" stroke="url(&quot;#SvgjsLinearGradient5236&quot;)" stroke-linecap="round" class="Down"></path><path d="M2114 107L2113 -374" stroke-width="6" stroke="url(&quot;#SvgjsLinearGradient5237&quot;)" stroke-linecap="round" class="Up"></path><path d="M1874 1016L1873 -9" stroke-width="10" stroke="url(&quot;#SvgjsLinearGradient5237&quot;)" stroke-linecap="round" class="Up"></path><path d="M920 559L919 1463" stroke-width="10" stroke="url(&quot;#SvgjsLinearGradient5236&quot;)" stroke-linecap="round" class="Down"></path><path d="M690 249L689 -128" stroke-width="10" stroke="url(&quot;#SvgjsLinearGradient5237&quot;)" stroke-linecap="round" class="Up"></path><path d="M855 628L854 1630" stroke-width="6" stroke="url(&quot;#SvgjsLinearGradient5237&quot;)" stroke-linecap="round" class="Up"></path><path d="M554 780L553 3" stroke-width="8" stroke="url(&quot;#SvgjsLinearGradient5236&quot;)" stroke-linecap="round" class="Down"></path><path d="M2346 954L2345 1593" stroke-width="6" stroke="url(&quot;#SvgjsLinearGradient5237&quot;)" stroke-linecap="round" class="Up"></path><path d="M1095 290L1094 1065" stroke-width="8" stroke="url(&quot;#SvgjsLinearGradient5237&quot;)" stroke-linecap="round" class="Up"></path><path d="M2306 1159L2305 284" stroke-width="6" stroke="url(&quot;#SvgjsLinearGradient5236&quot;)" stroke-linecap="round" class="Down"></path><path d="M1181 1071L1180 1602" stroke-width="10" stroke="url(&quot;#SvgjsLinearGradient5236&quot;)" stroke-linecap="round" class="Down"></path><path d="M766 523L765 1068" stroke-width="10" stroke="url(&quot;#SvgjsLinearGradient5236&quot;)" stroke-linecap="round" class="Down"></path><path d="M1965 1306L1964 1678" stroke-width="6" stroke="url(&quot;#SvgjsLinearGradient5236&quot;)" stroke-linecap="round" class="Down"></path><path d="M44 888L43 1505" stroke-width="6" stroke="url(&quot;#SvgjsLinearGradient5236&quot;)" stroke-linecap="round" class="Down"></path><path d="M651 747L650 -281" stroke-width="10" stroke="url(&quot;#SvgjsLinearGradient5236&quot;)" stroke-linecap="round" class="Down"></path><path d="M240 1350L239 652" stroke-width="6" stroke="url(&quot;#SvgjsLinearGradient5237&quot;)" stroke-linecap="round" class="Up"></path><path d="M727 823L726 61" stroke-width="6" stroke="url(&quot;#SvgjsLinearGradient5237&quot;)" stroke-linecap="round" class="Up"></path><path d="M476 390L475 927" stroke-width="8" stroke="url(&quot;#SvgjsLinearGradient5236&quot;)" stroke-linecap="round" class="Down"></path><path d="M1066 483L1065 864" stroke-width="6" stroke="url(&quot;#SvgjsLinearGradient5237&quot;)" stroke-linecap="round" class="Up"></path><path d="M390 646L389 -299" stroke-width="8" stroke="url(&quot;#SvgjsLinearGradient5236&quot;)" stroke-linecap="round" class="Down"></path><path d="M1815 26L1814 454" stroke-width="6" stroke="url(&quot;#SvgjsLinearGradient5236&quot;)" stroke-linecap="round" class="Down"></path><path d="M909 1347L908 433" stroke-width="8" stroke="url(&quot;#SvgjsLinearGradient5237&quot;)" stroke-linecap="round" class="Up"></path><path d="M1500 1246L1499 2023" stroke-width="10" stroke="url(&quot;#SvgjsLinearGradient5237&quot;)" stroke-linecap="round" class="Up"></path><path d="M643 424L642 -260" stroke-width="8" stroke="url(&quot;#SvgjsLinearGradient5236&quot;)" stroke-linecap="round" class="Down"></path><path d="M1862 1313L1861 2031" stroke-width="10" stroke="url(&quot;#SvgjsLinearGradient5237&quot;)" stroke-linecap="round" class="Up"></path><path d="M349 868L348 1529" stroke-width="8" stroke="url(&quot;#SvgjsLinearGradient5236&quot;)" stroke-linecap="round" class="Down"></path><path d="M1243 1434L1242 2419" stroke-width="10" stroke="url(&quot;#SvgjsLinearGradient5237&quot;)" stroke-linecap="round" class="Up"></path><path d="M1636 1152L1635 2071" stroke-width="6" stroke="url(&quot;#SvgjsLinearGradient5237&quot;)" stroke-linecap="round" class="Up"></path><path d="M569 660L568 -75" stroke-width="8" stroke="url(&quot;#SvgjsLinearGradient5236&quot;)" stroke-linecap="round" class="Down"></path><path d="M1817 1374L1816 1961" stroke-width="6" stroke="url(&quot;#SvgjsLinearGradient5237&quot;)" stroke-linecap="round" class="Up"></path><path d="M2001 188L2000 -867" stroke-width="10" stroke="url(&quot;#SvgjsLinearGradient5237&quot;)" stroke-linecap="round" class="Up"></path><path d="M421 277L420 1169" stroke-width="6" stroke="url(&quot;#SvgjsLinearGradient5237&quot;)" stroke-linecap="round" class="Up"></path><path d="M368 632L367 1013" stroke-width="10" stroke="url(&quot;#SvgjsLinearGradient5237&quot;)" stroke-linecap="round" class="Up"></path><path d="M258 1021L257 318" stroke-width="6" stroke="url(&quot;#SvgjsLinearGradient5236&quot;)" stroke-linecap="round" class="Down"></path><path d="M164 38L163 498" stroke-width="6" stroke="url(&quot;#SvgjsLinearGradient5237&quot;)" stroke-linecap="round" class="Up"></path><path d="M1692 359L1691 -607" stroke-width="6" stroke="url(&quot;#SvgjsLinearGradient5237&quot;)" stroke-linecap="round" class="Up"></path><path d="M1013 1205L1012 1589" stroke-width="6" stroke="url(&quot;#SvgjsLinearGradient5236&quot;)" stroke-linecap="round" class="Down"></path><path d="M533 908L532 1392" stroke-width="10" stroke="url(&quot;#SvgjsLinearGradient5237&quot;)" stroke-linecap="round" class="Up"></path><path d="M1589 906L1588 1877" stroke-width="6" stroke="url(&quot;#SvgjsLinearGradient5237&quot;)" stroke-linecap="round" class="Up"></path><path d="M247 562L246 1133" stroke-width="10" stroke="url(&quot;#SvgjsLinearGradient5237&quot;)" stroke-linecap="round" class="Up"></path><path d="M1247 688L1246 -107" stroke-width="8" stroke="url(&quot;#SvgjsLinearGradient5237&quot;)" stroke-linecap="round" class="Up"></path><path d="M1142 331L1141 -77" stroke-width="10" stroke="url(&quot;#SvgjsLinearGradient5236&quot;)" stroke-linecap="round" class="Down"></path><path d="M1173 280L1172 -687" stroke-width="8" stroke="url(&quot;#SvgjsLinearGradient5236&quot;)" stroke-linecap="round" class="Down"></path><path d="M1638 717L1637 -95" stroke-width="8" stroke="url(&quot;#SvgjsLinearGradient5237&quot;)" stroke-linecap="round" class="Up"></path><path d="M897 394L896 -484" stroke-width="10" stroke="url(&quot;#SvgjsLinearGradient5236&quot;)" stroke-linecap="round" class="Down"></path><path d="M1862 511L1861 1064" stroke-width="6" stroke="url(&quot;#SvgjsLinearGradient5237&quot;)" stroke-linecap="round" class="Up"></path><path d="M2274 513L2273 1449" stroke-width="6" stroke="url(&quot;#SvgjsLinearGradient5237&quot;)" stroke-linecap="round" class="Up"></path><path d="M154 1099L153 249" stroke-width="6" stroke="url(&quot;#SvgjsLinearGradient5237&quot;)" stroke-linecap="round" class="Up"></path><path d="M1597 456L1596 1055" stroke-width="6" stroke="url(&quot;#SvgjsLinearGradient5236&quot;)" stroke-linecap="round" class="Down"></path><path d="M2328 516L2327 -174" stroke-width="10" stroke="url(&quot;#SvgjsLinearGradient5237&quot;)" stroke-linecap="round" class="Up"></path></g><defs><mask id="SvgjsMask5234"><rect width="2560" height="1440" fill="#ffffff"></rect></mask><linearGradient x1="10.94%" y1="-19.44%" x2="89.06%" y2="119.44%" gradientUnits="userSpaceOnUse" id="SvgjsLinearGradient5235"><stop stop-color="#0e2a47" offset="0"></stop><stop stop-color="rgba(255, 255, 255, 0)" offset="1"></stop></linearGradient><linearGradient x1="0%" y1="0%" x2="0%" y2="100%" id="SvgjsLinearGradient5236"><stop stop-color="rgba(28, 78, 142, 0)" offset="0"></stop><stop stop-color="rgba(28, 78, 142, 0.15)" offset="1"></stop></linearGradient><linearGradient x1="0%" y1="100%" x2="0%" y2="0%" id="SvgjsLinearGradient5237"><stop stop-color="rgba(28, 78, 142, 0)" offset="0"></stop><stop stop-color="rgba(28, 78, 142, 0.15)" offset="1"></stop></linearGradient></defs></svg>