<svg xmlns="http://www.w3.org/2000/svg" version="1.1" xmlns:xlink="http://www.w3.org/1999/xlink" xmlns:svgjs="http://svgjs.dev/svgjs" width="2560" height="1440" preserveAspectRatio="none" viewBox="0 0 2560 1440"><g mask="url(&quot;#SvgjsMask1124&quot;)" fill="none"><rect width="2560" height="1440" x="0" y="0" fill="rgba(21, 67, 96, 0.13)"></rect><path d="M0,1065.599C225.366,1068.551,488.789,1174.108,661.461,1029.254C836.927,882.056,720.309,580.594,822.488,375.618C930.55,158.842,1279.325,59.895,1265.221,-181.911C1251.466,-417.728,957.438,-527.563,762.063,-660.332C607.826,-765.145,421.499,-784.457,254.992,-868.422C38.846,-977.418,-127.557,-1293.646,-360.037,-1226.175C-592.235,-1158.786,-554.107,-797.225,-686.782,-595.1C-795.329,-429.733,-1012.498,-343.912,-1064.439,-153.043C-1118.328,44.986,-1037.888,249.222,-969.169,442.605C-894.825,651.819,-837.188,892.008,-650.416,1012.067C-463.641,1132.128,-222.016,1062.69,0,1065.599" fill="rgba(14, 44, 62, 0.13)"></path><path d="M2560 2567.047C2773.307 2582.785 2998.19 2511.8810000000003 3156.248 2367.7799999999997 3306.261 2231.014 3334.325 2013.0610000000001 3383.635 1816.141 3425.04 1650.791 3429.074 1486.607 3419.516 1316.42 3409.067 1130.372 3444.446 920.139 3325.2690000000002 776.891 3205.841 633.342 2988.001 644.654 2811.038 585.044 2625.365 522.5 2448.064 363.356 2259.922 418.02700000000004 2071.786 472.696 2002.884 698.534 1884.158 854.38 1773.786 999.26 1617.058 1120.451 1587.8490000000002 1300.226 1558.47 1481.046 1653.848 1652.462 1727.2150000000001 1820.32 1801.746 1990.842 1879.182 2159.54 2017.737 2283.777 2172.708 2422.734 2352.417 2551.7309999999998 2560 2567.047" fill="rgba(28, 90, 130, 0.13)"></path></g><defs><mask id="SvgjsMask1124"><rect width="2560" height="1440" fill="#ffffff"></rect></mask></defs></svg>