<svg xmlns="http://www.w3.org/2000/svg" version="1.1" xmlns:xlink="http://www.w3.org/1999/xlink" xmlns:svgjs="http://svgjs.dev/svgjs" width="2560" height="1440" preserveAspectRatio="none" viewBox="0 0 2560 1440"><g mask="url(&quot;#SvgjsMask1225&quot;)" fill="none"><rect width="2560" height="1440" x="0" y="0" fill="url(&quot;#SvgjsRadialGradient1226&quot;)"></rect><path d="M 0,390 C 102.4,328.8 307.2,22.8 512,84 C 716.8,145.2 819.2,677.6 1024,696 C 1228.8,714.4 1331.2,177.6 1536,176 C 1740.8,174.4 1843.2,707.2 2048,688 C 2252.8,668.8 2457.6,201.6 2560,80L2560 1440L0 1440z" fill="rgba(24, 74, 126, 0.14)"></path><path d="M 0,840 C 170.8,897.6 512.4,1138.4 854,1128 C 1195.6,1117.6 1366.8,759.6 1708,788 C 2049.2,816.4 2389.6,1173.6 2560,1270L2560 1440L0 1440z" fill="rgba(34, 100, 171, 0.14)"></path></g><defs><mask id="SvgjsMask1225"><rect width="2560" height="1440" fill="#ffffff"></rect></mask><radialGradient cx="0%" cy="100%" r="2937.21" gradientUnits="userSpaceOnUse" id="SvgjsRadialGradient1226"><stop stop-color="#0e2a47" offset="0"></stop><stop stop-color="rgba(0, 69, 158, 0)" offset="1"></stop></radialGradient></defs></svg>